<mxfile host="app.diagrams.net" agent="Mozilla/5.0 (Windows NT 10.0; Win64; x64) AppleWebKit/537.36 (KHTML, like Gecko) Chrome/134.0.0.0 Safari/537.36" version="26.1.3">
  <diagram name="Page-1" id="IIp0hyRNsCwVaDH83uKj">
    <mxGraphModel dx="2868" dy="1544" grid="1" gridSize="10" guides="1" tooltips="1" connect="1" arrows="1" fold="1" page="1" pageScale="1" pageWidth="2800" pageHeight="1000" math="0" shadow="0">
      <root>
        <mxCell id="0" />
        <mxCell id="1" parent="0" />
        <mxCell id="MH6F7HLeKZP1oHbFSMYT-376" value="Имя объекта: Пользователи&#xa;Имя таблицы: Users" style="shape=table;childLayout=tableLayout;startSize=50;collapsible=0;recursiveResize=0;expand=0;fontSize=16;align=left;" vertex="1" parent="1">
          <mxGeometry x="1350" y="170" width="480" height="232" as="geometry" />
        </mxCell>
        <mxCell id="MH6F7HLeKZP1oHbFSMYT-377" value="" style="shape=tableRow;horizontal=0;swimlaneHead=0;swimlaneBody=0;top=0;left=0;strokeColor=inherit;bottom=0;right=0;dropTarget=0;fontStyle=0;fillColor=none;points=[[0,0.5],[1,0.5]];portConstraint=eastwest;startSize=0;collapsible=0;recursiveResize=0;expand=0;fontSize=16;" vertex="1" parent="MH6F7HLeKZP1oHbFSMYT-376">
          <mxGeometry y="50" width="480" height="40" as="geometry" />
        </mxCell>
        <mxCell id="MH6F7HLeKZP1oHbFSMYT-378" value="Атрибут" style="swimlane;swimlaneHead=0;swimlaneBody=0;fontStyle=0;strokeColor=inherit;connectable=0;fillColor=none;startSize=40;collapsible=0;recursiveResize=0;expand=0;fontSize=16;" vertex="1" parent="MH6F7HLeKZP1oHbFSMYT-377">
          <mxGeometry width="160" height="40" as="geometry">
            <mxRectangle width="160" height="40" as="alternateBounds" />
          </mxGeometry>
        </mxCell>
        <mxCell id="MH6F7HLeKZP1oHbFSMYT-379" value="Поле" style="swimlane;swimlaneHead=0;swimlaneBody=0;fontStyle=0;strokeColor=inherit;connectable=0;fillColor=none;startSize=40;collapsible=0;recursiveResize=0;expand=0;fontSize=16;" vertex="1" parent="MH6F7HLeKZP1oHbFSMYT-377">
          <mxGeometry x="160" width="200" height="40" as="geometry">
            <mxRectangle width="200" height="40" as="alternateBounds" />
          </mxGeometry>
        </mxCell>
        <mxCell id="MH6F7HLeKZP1oHbFSMYT-380" value="Тип" style="swimlane;swimlaneHead=0;swimlaneBody=0;fontStyle=0;strokeColor=inherit;connectable=0;fillColor=none;startSize=40;collapsible=0;recursiveResize=0;expand=0;fontSize=16;" vertex="1" parent="MH6F7HLeKZP1oHbFSMYT-377">
          <mxGeometry x="360" width="120" height="40" as="geometry">
            <mxRectangle width="120" height="40" as="alternateBounds" />
          </mxGeometry>
        </mxCell>
        <mxCell id="MH6F7HLeKZP1oHbFSMYT-381" value="" style="shape=tableRow;horizontal=0;swimlaneHead=0;swimlaneBody=0;top=0;left=0;strokeColor=inherit;bottom=0;right=0;dropTarget=0;fontStyle=0;fillColor=none;points=[[0,0.5],[1,0.5]];portConstraint=eastwest;startSize=0;collapsible=0;recursiveResize=0;expand=0;fontSize=16;" vertex="1" parent="MH6F7HLeKZP1oHbFSMYT-376">
          <mxGeometry y="90" width="480" height="30" as="geometry" />
        </mxCell>
        <mxCell id="MH6F7HLeKZP1oHbFSMYT-382" value="Первичный ключ" style="swimlane;swimlaneHead=0;swimlaneBody=0;fontStyle=0;connectable=0;strokeColor=inherit;fillColor=none;startSize=0;collapsible=0;recursiveResize=0;expand=0;fontSize=16;verticalAlign=top;" vertex="1" parent="MH6F7HLeKZP1oHbFSMYT-381">
          <mxGeometry width="160" height="30" as="geometry">
            <mxRectangle width="160" height="30" as="alternateBounds" />
          </mxGeometry>
        </mxCell>
        <mxCell id="MH6F7HLeKZP1oHbFSMYT-383" value="user_id" style="swimlane;swimlaneHead=0;swimlaneBody=0;fontStyle=0;connectable=0;strokeColor=inherit;fillColor=none;startSize=0;collapsible=0;recursiveResize=0;expand=0;fontSize=16;verticalAlign=top;" vertex="1" parent="MH6F7HLeKZP1oHbFSMYT-381">
          <mxGeometry x="160" width="200" height="30" as="geometry">
            <mxRectangle width="200" height="30" as="alternateBounds" />
          </mxGeometry>
        </mxCell>
        <mxCell id="MH6F7HLeKZP1oHbFSMYT-384" value="INTEGER" style="swimlane;swimlaneHead=0;swimlaneBody=0;fontStyle=0;connectable=0;strokeColor=inherit;fillColor=none;startSize=0;collapsible=0;recursiveResize=0;expand=0;fontSize=16;verticalAlign=top;" vertex="1" parent="MH6F7HLeKZP1oHbFSMYT-381">
          <mxGeometry x="360" width="120" height="30" as="geometry">
            <mxRectangle width="120" height="30" as="alternateBounds" />
          </mxGeometry>
        </mxCell>
        <mxCell id="MH6F7HLeKZP1oHbFSMYT-385" style="shape=tableRow;horizontal=0;swimlaneHead=0;swimlaneBody=0;top=0;left=0;strokeColor=inherit;bottom=0;right=0;dropTarget=0;fontStyle=0;fillColor=none;points=[[0,0.5],[1,0.5]];portConstraint=eastwest;startSize=0;collapsible=0;recursiveResize=0;expand=0;fontSize=16;" vertex="1" parent="MH6F7HLeKZP1oHbFSMYT-376">
          <mxGeometry y="120" width="480" height="28" as="geometry" />
        </mxCell>
        <mxCell id="MH6F7HLeKZP1oHbFSMYT-386" value="Логин пользователя" style="swimlane;swimlaneHead=0;swimlaneBody=0;fontStyle=0;connectable=0;strokeColor=inherit;fillColor=none;startSize=0;collapsible=0;recursiveResize=0;expand=0;fontSize=16;verticalAlign=top;" vertex="1" parent="MH6F7HLeKZP1oHbFSMYT-385">
          <mxGeometry width="160" height="28" as="geometry">
            <mxRectangle width="160" height="28" as="alternateBounds" />
          </mxGeometry>
        </mxCell>
        <mxCell id="MH6F7HLeKZP1oHbFSMYT-387" value="username" style="swimlane;swimlaneHead=0;swimlaneBody=0;fontStyle=0;connectable=0;strokeColor=inherit;fillColor=none;startSize=0;collapsible=0;recursiveResize=0;expand=0;fontSize=16;verticalAlign=top;" vertex="1" parent="MH6F7HLeKZP1oHbFSMYT-385">
          <mxGeometry x="160" width="200" height="28" as="geometry">
            <mxRectangle width="200" height="28" as="alternateBounds" />
          </mxGeometry>
        </mxCell>
        <mxCell id="MH6F7HLeKZP1oHbFSMYT-388" value="TEXT" style="swimlane;swimlaneHead=0;swimlaneBody=0;fontStyle=0;connectable=0;strokeColor=inherit;fillColor=none;startSize=0;collapsible=0;recursiveResize=0;expand=0;fontSize=16;verticalAlign=top;" vertex="1" parent="MH6F7HLeKZP1oHbFSMYT-385">
          <mxGeometry x="360" width="120" height="28" as="geometry">
            <mxRectangle width="120" height="28" as="alternateBounds" />
          </mxGeometry>
        </mxCell>
        <mxCell id="MH6F7HLeKZP1oHbFSMYT-389" style="shape=tableRow;horizontal=0;swimlaneHead=0;swimlaneBody=0;top=0;left=0;strokeColor=inherit;bottom=0;right=0;dropTarget=0;fontStyle=0;fillColor=none;points=[[0,0.5],[1,0.5]];portConstraint=eastwest;startSize=0;collapsible=0;recursiveResize=0;expand=0;fontSize=16;" vertex="1" parent="MH6F7HLeKZP1oHbFSMYT-376">
          <mxGeometry y="148" width="480" height="28" as="geometry" />
        </mxCell>
        <mxCell id="MH6F7HLeKZP1oHbFSMYT-390" value="Хэш пароля" style="swimlane;swimlaneHead=0;swimlaneBody=0;fontStyle=0;connectable=0;strokeColor=inherit;fillColor=none;startSize=0;collapsible=0;recursiveResize=0;expand=0;fontSize=16;verticalAlign=top;" vertex="1" parent="MH6F7HLeKZP1oHbFSMYT-389">
          <mxGeometry width="160" height="28" as="geometry">
            <mxRectangle width="160" height="28" as="alternateBounds" />
          </mxGeometry>
        </mxCell>
        <mxCell id="MH6F7HLeKZP1oHbFSMYT-391" value="password_hash" style="swimlane;swimlaneHead=0;swimlaneBody=0;fontStyle=0;connectable=0;strokeColor=inherit;fillColor=none;startSize=0;collapsible=0;recursiveResize=0;expand=0;fontSize=16;verticalAlign=top;" vertex="1" parent="MH6F7HLeKZP1oHbFSMYT-389">
          <mxGeometry x="160" width="200" height="28" as="geometry">
            <mxRectangle width="200" height="28" as="alternateBounds" />
          </mxGeometry>
        </mxCell>
        <mxCell id="MH6F7HLeKZP1oHbFSMYT-392" value="TEXT" style="swimlane;swimlaneHead=0;swimlaneBody=0;fontStyle=0;connectable=0;strokeColor=inherit;fillColor=none;startSize=0;collapsible=0;recursiveResize=0;expand=0;fontSize=16;verticalAlign=top;" vertex="1" parent="MH6F7HLeKZP1oHbFSMYT-389">
          <mxGeometry x="360" width="120" height="28" as="geometry">
            <mxRectangle width="120" height="28" as="alternateBounds" />
          </mxGeometry>
        </mxCell>
        <mxCell id="MH6F7HLeKZP1oHbFSMYT-393" style="shape=tableRow;horizontal=0;swimlaneHead=0;swimlaneBody=0;top=0;left=0;strokeColor=inherit;bottom=0;right=0;dropTarget=0;fontStyle=0;fillColor=none;points=[[0,0.5],[1,0.5]];portConstraint=eastwest;startSize=0;collapsible=0;recursiveResize=0;expand=0;fontSize=16;" vertex="1" parent="MH6F7HLeKZP1oHbFSMYT-376">
          <mxGeometry y="176" width="480" height="28" as="geometry" />
        </mxCell>
        <mxCell id="MH6F7HLeKZP1oHbFSMYT-394" value="Отображаемое имя" style="swimlane;swimlaneHead=0;swimlaneBody=0;fontStyle=0;connectable=0;strokeColor=inherit;fillColor=none;startSize=0;collapsible=0;recursiveResize=0;expand=0;fontSize=16;verticalAlign=top;" vertex="1" parent="MH6F7HLeKZP1oHbFSMYT-393">
          <mxGeometry width="160" height="28" as="geometry">
            <mxRectangle width="160" height="28" as="alternateBounds" />
          </mxGeometry>
        </mxCell>
        <mxCell id="MH6F7HLeKZP1oHbFSMYT-395" value="display_name" style="swimlane;swimlaneHead=0;swimlaneBody=0;fontStyle=0;connectable=0;strokeColor=inherit;fillColor=none;startSize=0;collapsible=0;recursiveResize=0;expand=0;fontSize=16;verticalAlign=top;" vertex="1" parent="MH6F7HLeKZP1oHbFSMYT-393">
          <mxGeometry x="160" width="200" height="28" as="geometry">
            <mxRectangle width="200" height="28" as="alternateBounds" />
          </mxGeometry>
        </mxCell>
        <mxCell id="MH6F7HLeKZP1oHbFSMYT-396" value="TEXT" style="swimlane;swimlaneHead=0;swimlaneBody=0;fontStyle=0;connectable=0;strokeColor=inherit;fillColor=none;startSize=0;collapsible=0;recursiveResize=0;expand=0;fontSize=16;verticalAlign=top;" vertex="1" parent="MH6F7HLeKZP1oHbFSMYT-393">
          <mxGeometry x="360" width="120" height="28" as="geometry">
            <mxRectangle width="120" height="28" as="alternateBounds" />
          </mxGeometry>
        </mxCell>
        <mxCell id="MH6F7HLeKZP1oHbFSMYT-397" style="shape=tableRow;horizontal=0;swimlaneHead=0;swimlaneBody=0;top=0;left=0;strokeColor=inherit;bottom=0;right=0;dropTarget=0;fontStyle=0;fillColor=none;points=[[0,0.5],[1,0.5]];portConstraint=eastwest;startSize=0;collapsible=0;recursiveResize=0;expand=0;fontSize=16;" vertex="1" parent="MH6F7HLeKZP1oHbFSMYT-376">
          <mxGeometry y="204" width="480" height="28" as="geometry" />
        </mxCell>
        <mxCell id="MH6F7HLeKZP1oHbFSMYT-398" value="Дата регистрации" style="swimlane;swimlaneHead=0;swimlaneBody=0;fontStyle=0;connectable=0;strokeColor=inherit;fillColor=none;startSize=0;collapsible=0;recursiveResize=0;expand=0;fontSize=16;verticalAlign=top;" vertex="1" parent="MH6F7HLeKZP1oHbFSMYT-397">
          <mxGeometry width="160" height="28" as="geometry">
            <mxRectangle width="160" height="28" as="alternateBounds" />
          </mxGeometry>
        </mxCell>
        <mxCell id="MH6F7HLeKZP1oHbFSMYT-399" value="created_at" style="swimlane;swimlaneHead=0;swimlaneBody=0;fontStyle=0;connectable=0;strokeColor=inherit;fillColor=none;startSize=0;collapsible=0;recursiveResize=0;expand=0;fontSize=16;verticalAlign=top;" vertex="1" parent="MH6F7HLeKZP1oHbFSMYT-397">
          <mxGeometry x="160" width="200" height="28" as="geometry">
            <mxRectangle width="200" height="28" as="alternateBounds" />
          </mxGeometry>
        </mxCell>
        <mxCell id="MH6F7HLeKZP1oHbFSMYT-400" value="INTEGER" style="swimlane;swimlaneHead=0;swimlaneBody=0;fontStyle=0;connectable=0;strokeColor=inherit;fillColor=none;startSize=0;collapsible=0;recursiveResize=0;expand=0;fontSize=16;verticalAlign=top;" vertex="1" parent="MH6F7HLeKZP1oHbFSMYT-397">
          <mxGeometry x="360" width="120" height="28" as="geometry">
            <mxRectangle width="120" height="28" as="alternateBounds" />
          </mxGeometry>
        </mxCell>
        <mxCell id="MH6F7HLeKZP1oHbFSMYT-401" value="SQLite позволяет хранить дату в трех форматах:&amp;nbsp;&lt;div&gt;- TEXT: строка формата ISO8601&lt;/div&gt;&lt;div&gt;- REAL: юлианская дата (только дни)&lt;/div&gt;&lt;div&gt;- INTEGER: Unix Time - больше подходит для указания конкретного времени&lt;/div&gt;" style="text;html=1;align=left;verticalAlign=middle;resizable=0;points=[];autosize=1;strokeColor=none;fillColor=none;" vertex="1" parent="1">
          <mxGeometry x="1150" y="40" width="450" height="70" as="geometry" />
        </mxCell>
        <mxCell id="MH6F7HLeKZP1oHbFSMYT-477" value="Имя объекта: Токены аутентификации&#xa;Имя таблицы: Auth Tokens" style="shape=table;childLayout=tableLayout;startSize=50;collapsible=0;recursiveResize=0;expand=0;fontSize=16;align=left;" vertex="1" parent="1">
          <mxGeometry x="2020" y="170" width="680" height="232" as="geometry" />
        </mxCell>
        <mxCell id="MH6F7HLeKZP1oHbFSMYT-478" value="" style="shape=tableRow;horizontal=0;swimlaneHead=0;swimlaneBody=0;top=0;left=0;strokeColor=inherit;bottom=0;right=0;dropTarget=0;fontStyle=0;fillColor=none;points=[[0,0.5],[1,0.5]];portConstraint=eastwest;startSize=0;collapsible=0;recursiveResize=0;expand=0;fontSize=16;" vertex="1" parent="MH6F7HLeKZP1oHbFSMYT-477">
          <mxGeometry y="50" width="680" height="40" as="geometry" />
        </mxCell>
        <mxCell id="MH6F7HLeKZP1oHbFSMYT-479" value="Атрибут" style="swimlane;swimlaneHead=0;swimlaneBody=0;fontStyle=0;strokeColor=inherit;connectable=0;fillColor=none;startSize=40;collapsible=0;recursiveResize=0;expand=0;fontSize=16;" vertex="1" parent="MH6F7HLeKZP1oHbFSMYT-478">
          <mxGeometry width="340" height="40" as="geometry">
            <mxRectangle width="340" height="40" as="alternateBounds" />
          </mxGeometry>
        </mxCell>
        <mxCell id="MH6F7HLeKZP1oHbFSMYT-480" value="Поле" style="swimlane;swimlaneHead=0;swimlaneBody=0;fontStyle=0;strokeColor=inherit;connectable=0;fillColor=none;startSize=40;collapsible=0;recursiveResize=0;expand=0;fontSize=16;" vertex="1" parent="MH6F7HLeKZP1oHbFSMYT-478">
          <mxGeometry x="340" width="200" height="40" as="geometry">
            <mxRectangle width="200" height="40" as="alternateBounds" />
          </mxGeometry>
        </mxCell>
        <mxCell id="MH6F7HLeKZP1oHbFSMYT-481" value="Тип" style="swimlane;swimlaneHead=0;swimlaneBody=0;fontStyle=0;strokeColor=inherit;connectable=0;fillColor=none;startSize=40;collapsible=0;recursiveResize=0;expand=0;fontSize=16;" vertex="1" parent="MH6F7HLeKZP1oHbFSMYT-478">
          <mxGeometry x="540" width="140" height="40" as="geometry">
            <mxRectangle width="140" height="40" as="alternateBounds" />
          </mxGeometry>
        </mxCell>
        <mxCell id="MH6F7HLeKZP1oHbFSMYT-482" value="" style="shape=tableRow;horizontal=0;swimlaneHead=0;swimlaneBody=0;top=0;left=0;strokeColor=inherit;bottom=0;right=0;dropTarget=0;fontStyle=0;fillColor=none;points=[[0,0.5],[1,0.5]];portConstraint=eastwest;startSize=0;collapsible=0;recursiveResize=0;expand=0;fontSize=16;" vertex="1" parent="MH6F7HLeKZP1oHbFSMYT-477">
          <mxGeometry y="90" width="680" height="30" as="geometry" />
        </mxCell>
        <mxCell id="MH6F7HLeKZP1oHbFSMYT-483" value="Первичный ключ" style="swimlane;swimlaneHead=0;swimlaneBody=0;fontStyle=0;connectable=0;strokeColor=inherit;fillColor=none;startSize=0;collapsible=0;recursiveResize=0;expand=0;fontSize=16;verticalAlign=top;" vertex="1" parent="MH6F7HLeKZP1oHbFSMYT-482">
          <mxGeometry width="340" height="30" as="geometry">
            <mxRectangle width="340" height="30" as="alternateBounds" />
          </mxGeometry>
        </mxCell>
        <mxCell id="MH6F7HLeKZP1oHbFSMYT-484" value="token" style="swimlane;swimlaneHead=0;swimlaneBody=0;fontStyle=0;connectable=0;strokeColor=inherit;fillColor=none;startSize=0;collapsible=0;recursiveResize=0;expand=0;fontSize=16;verticalAlign=top;" vertex="1" parent="MH6F7HLeKZP1oHbFSMYT-482">
          <mxGeometry x="340" width="200" height="30" as="geometry">
            <mxRectangle width="200" height="30" as="alternateBounds" />
          </mxGeometry>
        </mxCell>
        <mxCell id="MH6F7HLeKZP1oHbFSMYT-485" value="TEXT" style="swimlane;swimlaneHead=0;swimlaneBody=0;fontStyle=0;connectable=0;strokeColor=inherit;fillColor=none;startSize=0;collapsible=0;recursiveResize=0;expand=0;fontSize=16;verticalAlign=top;" vertex="1" parent="MH6F7HLeKZP1oHbFSMYT-482">
          <mxGeometry x="540" width="140" height="30" as="geometry">
            <mxRectangle width="140" height="30" as="alternateBounds" />
          </mxGeometry>
        </mxCell>
        <mxCell id="MH6F7HLeKZP1oHbFSMYT-486" style="shape=tableRow;horizontal=0;swimlaneHead=0;swimlaneBody=0;top=0;left=0;strokeColor=inherit;bottom=0;right=0;dropTarget=0;fontStyle=0;fillColor=none;points=[[0,0.5],[1,0.5]];portConstraint=eastwest;startSize=0;collapsible=0;recursiveResize=0;expand=0;fontSize=16;" vertex="1" parent="MH6F7HLeKZP1oHbFSMYT-477">
          <mxGeometry y="120" width="680" height="28" as="geometry" />
        </mxCell>
        <mxCell id="MH6F7HLeKZP1oHbFSMYT-487" value="ID пользвателя" style="swimlane;swimlaneHead=0;swimlaneBody=0;fontStyle=0;connectable=0;strokeColor=inherit;fillColor=none;startSize=0;collapsible=0;recursiveResize=0;expand=0;fontSize=16;verticalAlign=top;" vertex="1" parent="MH6F7HLeKZP1oHbFSMYT-486">
          <mxGeometry width="340" height="28" as="geometry">
            <mxRectangle width="340" height="28" as="alternateBounds" />
          </mxGeometry>
        </mxCell>
        <mxCell id="MH6F7HLeKZP1oHbFSMYT-488" value="user_id" style="swimlane;swimlaneHead=0;swimlaneBody=0;fontStyle=0;connectable=0;strokeColor=inherit;fillColor=none;startSize=0;collapsible=0;recursiveResize=0;expand=0;fontSize=16;verticalAlign=top;" vertex="1" parent="MH6F7HLeKZP1oHbFSMYT-486">
          <mxGeometry x="340" width="200" height="28" as="geometry">
            <mxRectangle width="200" height="28" as="alternateBounds" />
          </mxGeometry>
        </mxCell>
        <mxCell id="MH6F7HLeKZP1oHbFSMYT-489" value="INTEGER" style="swimlane;swimlaneHead=0;swimlaneBody=0;fontStyle=0;connectable=0;strokeColor=inherit;fillColor=none;startSize=0;collapsible=0;recursiveResize=0;expand=0;fontSize=16;verticalAlign=top;" vertex="1" parent="MH6F7HLeKZP1oHbFSMYT-486">
          <mxGeometry x="540" width="140" height="28" as="geometry">
            <mxRectangle width="140" height="28" as="alternateBounds" />
          </mxGeometry>
        </mxCell>
        <mxCell id="MH6F7HLeKZP1oHbFSMYT-490" style="shape=tableRow;horizontal=0;swimlaneHead=0;swimlaneBody=0;top=0;left=0;strokeColor=inherit;bottom=0;right=0;dropTarget=0;fontStyle=0;fillColor=none;points=[[0,0.5],[1,0.5]];portConstraint=eastwest;startSize=0;collapsible=0;recursiveResize=0;expand=0;fontSize=16;" vertex="1" parent="MH6F7HLeKZP1oHbFSMYT-477">
          <mxGeometry y="148" width="680" height="28" as="geometry" />
        </mxCell>
        <mxCell id="MH6F7HLeKZP1oHbFSMYT-491" value="Дата создания токена" style="swimlane;swimlaneHead=0;swimlaneBody=0;fontStyle=0;connectable=0;strokeColor=inherit;fillColor=none;startSize=0;collapsible=0;recursiveResize=0;expand=0;fontSize=16;verticalAlign=top;" vertex="1" parent="MH6F7HLeKZP1oHbFSMYT-490">
          <mxGeometry width="340" height="28" as="geometry">
            <mxRectangle width="340" height="28" as="alternateBounds" />
          </mxGeometry>
        </mxCell>
        <mxCell id="MH6F7HLeKZP1oHbFSMYT-492" value="created_at" style="swimlane;swimlaneHead=0;swimlaneBody=0;fontStyle=0;connectable=0;strokeColor=inherit;fillColor=none;startSize=0;collapsible=0;recursiveResize=0;expand=0;fontSize=16;verticalAlign=top;" vertex="1" parent="MH6F7HLeKZP1oHbFSMYT-490">
          <mxGeometry x="340" width="200" height="28" as="geometry">
            <mxRectangle width="200" height="28" as="alternateBounds" />
          </mxGeometry>
        </mxCell>
        <mxCell id="MH6F7HLeKZP1oHbFSMYT-493" value="INTEGER" style="swimlane;swimlaneHead=0;swimlaneBody=0;fontStyle=0;connectable=0;strokeColor=inherit;fillColor=none;startSize=0;collapsible=0;recursiveResize=0;expand=0;fontSize=16;verticalAlign=top;" vertex="1" parent="MH6F7HLeKZP1oHbFSMYT-490">
          <mxGeometry x="540" width="140" height="28" as="geometry">
            <mxRectangle width="140" height="28" as="alternateBounds" />
          </mxGeometry>
        </mxCell>
        <mxCell id="MH6F7HLeKZP1oHbFSMYT-494" style="shape=tableRow;horizontal=0;swimlaneHead=0;swimlaneBody=0;top=0;left=0;strokeColor=inherit;bottom=0;right=0;dropTarget=0;fontStyle=0;fillColor=none;points=[[0,0.5],[1,0.5]];portConstraint=eastwest;startSize=0;collapsible=0;recursiveResize=0;expand=0;fontSize=16;" vertex="1" parent="MH6F7HLeKZP1oHbFSMYT-477">
          <mxGeometry y="176" width="680" height="28" as="geometry" />
        </mxCell>
        <mxCell id="MH6F7HLeKZP1oHbFSMYT-495" value="Дата истечения токена" style="swimlane;swimlaneHead=0;swimlaneBody=0;fontStyle=0;connectable=0;strokeColor=inherit;fillColor=none;startSize=0;collapsible=0;recursiveResize=0;expand=0;fontSize=16;verticalAlign=top;" vertex="1" parent="MH6F7HLeKZP1oHbFSMYT-494">
          <mxGeometry width="340" height="28" as="geometry">
            <mxRectangle width="340" height="28" as="alternateBounds" />
          </mxGeometry>
        </mxCell>
        <mxCell id="MH6F7HLeKZP1oHbFSMYT-496" value="expires_at" style="swimlane;swimlaneHead=0;swimlaneBody=0;fontStyle=0;connectable=0;strokeColor=inherit;fillColor=none;startSize=0;collapsible=0;recursiveResize=0;expand=0;fontSize=16;verticalAlign=top;" vertex="1" parent="MH6F7HLeKZP1oHbFSMYT-494">
          <mxGeometry x="340" width="200" height="28" as="geometry">
            <mxRectangle width="200" height="28" as="alternateBounds" />
          </mxGeometry>
        </mxCell>
        <mxCell id="MH6F7HLeKZP1oHbFSMYT-497" value="INTEGER" style="swimlane;swimlaneHead=0;swimlaneBody=0;fontStyle=0;connectable=0;strokeColor=inherit;fillColor=none;startSize=0;collapsible=0;recursiveResize=0;expand=0;fontSize=16;verticalAlign=top;" vertex="1" parent="MH6F7HLeKZP1oHbFSMYT-494">
          <mxGeometry x="540" width="140" height="28" as="geometry">
            <mxRectangle width="140" height="28" as="alternateBounds" />
          </mxGeometry>
        </mxCell>
        <mxCell id="MH6F7HLeKZP1oHbFSMYT-498" style="shape=tableRow;horizontal=0;swimlaneHead=0;swimlaneBody=0;top=0;left=0;strokeColor=inherit;bottom=0;right=0;dropTarget=0;fontStyle=0;fillColor=none;points=[[0,0.5],[1,0.5]];portConstraint=eastwest;startSize=0;collapsible=0;recursiveResize=0;expand=0;fontSize=16;" vertex="1" parent="MH6F7HLeKZP1oHbFSMYT-477">
          <mxGeometry y="204" width="680" height="28" as="geometry" />
        </mxCell>
        <mxCell id="MH6F7HLeKZP1oHbFSMYT-499" value="Дата последнего использования токена" style="swimlane;swimlaneHead=0;swimlaneBody=0;fontStyle=0;connectable=0;strokeColor=inherit;fillColor=none;startSize=0;collapsible=0;recursiveResize=0;expand=0;fontSize=16;verticalAlign=top;" vertex="1" parent="MH6F7HLeKZP1oHbFSMYT-498">
          <mxGeometry width="340" height="28" as="geometry">
            <mxRectangle width="340" height="28" as="alternateBounds" />
          </mxGeometry>
        </mxCell>
        <mxCell id="MH6F7HLeKZP1oHbFSMYT-500" value="last_used_at" style="swimlane;swimlaneHead=0;swimlaneBody=0;fontStyle=0;connectable=0;strokeColor=inherit;fillColor=none;startSize=0;collapsible=0;recursiveResize=0;expand=0;fontSize=16;verticalAlign=top;" vertex="1" parent="MH6F7HLeKZP1oHbFSMYT-498">
          <mxGeometry x="340" width="200" height="28" as="geometry">
            <mxRectangle width="200" height="28" as="alternateBounds" />
          </mxGeometry>
        </mxCell>
        <mxCell id="MH6F7HLeKZP1oHbFSMYT-501" value="INTEGER" style="swimlane;swimlaneHead=0;swimlaneBody=0;fontStyle=0;connectable=0;strokeColor=inherit;fillColor=none;startSize=0;collapsible=0;recursiveResize=0;expand=0;fontSize=16;verticalAlign=top;" vertex="1" parent="MH6F7HLeKZP1oHbFSMYT-498">
          <mxGeometry x="540" width="140" height="28" as="geometry">
            <mxRectangle width="140" height="28" as="alternateBounds" />
          </mxGeometry>
        </mxCell>
        <mxCell id="MH6F7HLeKZP1oHbFSMYT-527" value="Имя объекта: Сообщения&#xa;Имя таблицы: Messages" style="shape=table;childLayout=tableLayout;startSize=50;collapsible=0;recursiveResize=0;expand=0;fontSize=16;align=left;" vertex="1" parent="1">
          <mxGeometry x="1265" y="630" width="600" height="288" as="geometry" />
        </mxCell>
        <mxCell id="MH6F7HLeKZP1oHbFSMYT-528" value="" style="shape=tableRow;horizontal=0;swimlaneHead=0;swimlaneBody=0;top=0;left=0;strokeColor=inherit;bottom=0;right=0;dropTarget=0;fontStyle=0;fillColor=none;points=[[0,0.5],[1,0.5]];portConstraint=eastwest;startSize=0;collapsible=0;recursiveResize=0;expand=0;fontSize=16;" vertex="1" parent="MH6F7HLeKZP1oHbFSMYT-527">
          <mxGeometry y="50" width="600" height="40" as="geometry" />
        </mxCell>
        <mxCell id="MH6F7HLeKZP1oHbFSMYT-529" value="Атрибут" style="swimlane;swimlaneHead=0;swimlaneBody=0;fontStyle=0;strokeColor=inherit;connectable=0;fillColor=none;startSize=40;collapsible=0;recursiveResize=0;expand=0;fontSize=16;" vertex="1" parent="MH6F7HLeKZP1oHbFSMYT-528">
          <mxGeometry width="290" height="40" as="geometry">
            <mxRectangle width="290" height="40" as="alternateBounds" />
          </mxGeometry>
        </mxCell>
        <mxCell id="MH6F7HLeKZP1oHbFSMYT-530" value="Поле" style="swimlane;swimlaneHead=0;swimlaneBody=0;fontStyle=0;strokeColor=inherit;connectable=0;fillColor=none;startSize=40;collapsible=0;recursiveResize=0;expand=0;fontSize=16;" vertex="1" parent="MH6F7HLeKZP1oHbFSMYT-528">
          <mxGeometry x="290" width="180" height="40" as="geometry">
            <mxRectangle width="180" height="40" as="alternateBounds" />
          </mxGeometry>
        </mxCell>
        <mxCell id="MH6F7HLeKZP1oHbFSMYT-531" value="Тип" style="swimlane;swimlaneHead=0;swimlaneBody=0;fontStyle=0;strokeColor=inherit;connectable=0;fillColor=none;startSize=40;collapsible=0;recursiveResize=0;expand=0;fontSize=16;" vertex="1" parent="MH6F7HLeKZP1oHbFSMYT-528">
          <mxGeometry x="470" width="130" height="40" as="geometry">
            <mxRectangle width="130" height="40" as="alternateBounds" />
          </mxGeometry>
        </mxCell>
        <mxCell id="MH6F7HLeKZP1oHbFSMYT-532" value="" style="shape=tableRow;horizontal=0;swimlaneHead=0;swimlaneBody=0;top=0;left=0;strokeColor=inherit;bottom=0;right=0;dropTarget=0;fontStyle=0;fillColor=none;points=[[0,0.5],[1,0.5]];portConstraint=eastwest;startSize=0;collapsible=0;recursiveResize=0;expand=0;fontSize=16;" vertex="1" parent="MH6F7HLeKZP1oHbFSMYT-527">
          <mxGeometry y="90" width="600" height="30" as="geometry" />
        </mxCell>
        <mxCell id="MH6F7HLeKZP1oHbFSMYT-533" value="Первичный ключ" style="swimlane;swimlaneHead=0;swimlaneBody=0;fontStyle=0;connectable=0;strokeColor=inherit;fillColor=none;startSize=0;collapsible=0;recursiveResize=0;expand=0;fontSize=16;verticalAlign=top;" vertex="1" parent="MH6F7HLeKZP1oHbFSMYT-532">
          <mxGeometry width="290" height="30" as="geometry">
            <mxRectangle width="290" height="30" as="alternateBounds" />
          </mxGeometry>
        </mxCell>
        <mxCell id="MH6F7HLeKZP1oHbFSMYT-534" value="message_id" style="swimlane;swimlaneHead=0;swimlaneBody=0;fontStyle=0;connectable=0;strokeColor=inherit;fillColor=none;startSize=0;collapsible=0;recursiveResize=0;expand=0;fontSize=16;verticalAlign=top;" vertex="1" parent="MH6F7HLeKZP1oHbFSMYT-532">
          <mxGeometry x="290" width="180" height="30" as="geometry">
            <mxRectangle width="180" height="30" as="alternateBounds" />
          </mxGeometry>
        </mxCell>
        <mxCell id="MH6F7HLeKZP1oHbFSMYT-535" value="INTEGER" style="swimlane;swimlaneHead=0;swimlaneBody=0;fontStyle=0;connectable=0;strokeColor=inherit;fillColor=none;startSize=0;collapsible=0;recursiveResize=0;expand=0;fontSize=16;verticalAlign=top;" vertex="1" parent="MH6F7HLeKZP1oHbFSMYT-532">
          <mxGeometry x="470" width="130" height="30" as="geometry">
            <mxRectangle width="130" height="30" as="alternateBounds" />
          </mxGeometry>
        </mxCell>
        <mxCell id="MH6F7HLeKZP1oHbFSMYT-536" style="shape=tableRow;horizontal=0;swimlaneHead=0;swimlaneBody=0;top=0;left=0;strokeColor=inherit;bottom=0;right=0;dropTarget=0;fontStyle=0;fillColor=none;points=[[0,0.5],[1,0.5]];portConstraint=eastwest;startSize=0;collapsible=0;recursiveResize=0;expand=0;fontSize=16;" vertex="1" parent="MH6F7HLeKZP1oHbFSMYT-527">
          <mxGeometry y="120" width="600" height="28" as="geometry" />
        </mxCell>
        <mxCell id="MH6F7HLeKZP1oHbFSMYT-537" value="ID чата" style="swimlane;swimlaneHead=0;swimlaneBody=0;fontStyle=0;connectable=0;strokeColor=inherit;fillColor=none;startSize=0;collapsible=0;recursiveResize=0;expand=0;fontSize=16;verticalAlign=top;" vertex="1" parent="MH6F7HLeKZP1oHbFSMYT-536">
          <mxGeometry width="290" height="28" as="geometry">
            <mxRectangle width="290" height="28" as="alternateBounds" />
          </mxGeometry>
        </mxCell>
        <mxCell id="MH6F7HLeKZP1oHbFSMYT-538" value="chat_id" style="swimlane;swimlaneHead=0;swimlaneBody=0;fontStyle=0;connectable=0;strokeColor=inherit;fillColor=none;startSize=0;collapsible=0;recursiveResize=0;expand=0;fontSize=16;verticalAlign=top;" vertex="1" parent="MH6F7HLeKZP1oHbFSMYT-536">
          <mxGeometry x="290" width="180" height="28" as="geometry">
            <mxRectangle width="180" height="28" as="alternateBounds" />
          </mxGeometry>
        </mxCell>
        <mxCell id="MH6F7HLeKZP1oHbFSMYT-539" value="INTEGER" style="swimlane;swimlaneHead=0;swimlaneBody=0;fontStyle=0;connectable=0;strokeColor=inherit;fillColor=none;startSize=0;collapsible=0;recursiveResize=0;expand=0;fontSize=16;verticalAlign=top;" vertex="1" parent="MH6F7HLeKZP1oHbFSMYT-536">
          <mxGeometry x="470" width="130" height="28" as="geometry">
            <mxRectangle width="130" height="28" as="alternateBounds" />
          </mxGeometry>
        </mxCell>
        <mxCell id="MH6F7HLeKZP1oHbFSMYT-540" style="shape=tableRow;horizontal=0;swimlaneHead=0;swimlaneBody=0;top=0;left=0;strokeColor=inherit;bottom=0;right=0;dropTarget=0;fontStyle=0;fillColor=none;points=[[0,0.5],[1,0.5]];portConstraint=eastwest;startSize=0;collapsible=0;recursiveResize=0;expand=0;fontSize=16;" vertex="1" parent="MH6F7HLeKZP1oHbFSMYT-527">
          <mxGeometry y="148" width="600" height="28" as="geometry" />
        </mxCell>
        <mxCell id="MH6F7HLeKZP1oHbFSMYT-541" value="ID отправителя" style="swimlane;swimlaneHead=0;swimlaneBody=0;fontStyle=0;connectable=0;strokeColor=inherit;fillColor=none;startSize=0;collapsible=0;recursiveResize=0;expand=0;fontSize=16;verticalAlign=top;" vertex="1" parent="MH6F7HLeKZP1oHbFSMYT-540">
          <mxGeometry width="290" height="28" as="geometry">
            <mxRectangle width="290" height="28" as="alternateBounds" />
          </mxGeometry>
        </mxCell>
        <mxCell id="MH6F7HLeKZP1oHbFSMYT-542" value="sender_user_id" style="swimlane;swimlaneHead=0;swimlaneBody=0;fontStyle=0;connectable=0;strokeColor=inherit;fillColor=none;startSize=0;collapsible=0;recursiveResize=0;expand=0;fontSize=16;verticalAlign=top;" vertex="1" parent="MH6F7HLeKZP1oHbFSMYT-540">
          <mxGeometry x="290" width="180" height="28" as="geometry">
            <mxRectangle width="180" height="28" as="alternateBounds" />
          </mxGeometry>
        </mxCell>
        <mxCell id="MH6F7HLeKZP1oHbFSMYT-543" value="INTEGER" style="swimlane;swimlaneHead=0;swimlaneBody=0;fontStyle=0;connectable=0;strokeColor=inherit;fillColor=none;startSize=0;collapsible=0;recursiveResize=0;expand=0;fontSize=16;verticalAlign=top;" vertex="1" parent="MH6F7HLeKZP1oHbFSMYT-540">
          <mxGeometry x="470" width="130" height="28" as="geometry">
            <mxRectangle width="130" height="28" as="alternateBounds" />
          </mxGeometry>
        </mxCell>
        <mxCell id="MH6F7HLeKZP1oHbFSMYT-544" style="shape=tableRow;horizontal=0;swimlaneHead=0;swimlaneBody=0;top=0;left=0;strokeColor=inherit;bottom=0;right=0;dropTarget=0;fontStyle=0;fillColor=none;points=[[0,0.5],[1,0.5]];portConstraint=eastwest;startSize=0;collapsible=0;recursiveResize=0;expand=0;fontSize=16;" vertex="1" parent="MH6F7HLeKZP1oHbFSMYT-527">
          <mxGeometry y="176" width="600" height="28" as="geometry" />
        </mxCell>
        <mxCell id="MH6F7HLeKZP1oHbFSMYT-545" value="Текст сообщения" style="swimlane;swimlaneHead=0;swimlaneBody=0;fontStyle=0;connectable=0;strokeColor=inherit;fillColor=none;startSize=0;collapsible=0;recursiveResize=0;expand=0;fontSize=16;verticalAlign=top;" vertex="1" parent="MH6F7HLeKZP1oHbFSMYT-544">
          <mxGeometry width="290" height="28" as="geometry">
            <mxRectangle width="290" height="28" as="alternateBounds" />
          </mxGeometry>
        </mxCell>
        <mxCell id="MH6F7HLeKZP1oHbFSMYT-546" value="content" style="swimlane;swimlaneHead=0;swimlaneBody=0;fontStyle=0;connectable=0;strokeColor=inherit;fillColor=none;startSize=0;collapsible=0;recursiveResize=0;expand=0;fontSize=16;verticalAlign=top;" vertex="1" parent="MH6F7HLeKZP1oHbFSMYT-544">
          <mxGeometry x="290" width="180" height="28" as="geometry">
            <mxRectangle width="180" height="28" as="alternateBounds" />
          </mxGeometry>
        </mxCell>
        <mxCell id="MH6F7HLeKZP1oHbFSMYT-547" value="TEXT" style="swimlane;swimlaneHead=0;swimlaneBody=0;fontStyle=0;connectable=0;strokeColor=inherit;fillColor=none;startSize=0;collapsible=0;recursiveResize=0;expand=0;fontSize=16;verticalAlign=top;" vertex="1" parent="MH6F7HLeKZP1oHbFSMYT-544">
          <mxGeometry x="470" width="130" height="28" as="geometry">
            <mxRectangle width="130" height="28" as="alternateBounds" />
          </mxGeometry>
        </mxCell>
        <mxCell id="MH6F7HLeKZP1oHbFSMYT-548" style="shape=tableRow;horizontal=0;swimlaneHead=0;swimlaneBody=0;top=0;left=0;strokeColor=inherit;bottom=0;right=0;dropTarget=0;fontStyle=0;fillColor=none;points=[[0,0.5],[1,0.5]];portConstraint=eastwest;startSize=0;collapsible=0;recursiveResize=0;expand=0;fontSize=16;" vertex="1" parent="MH6F7HLeKZP1oHbFSMYT-527">
          <mxGeometry y="204" width="600" height="28" as="geometry" />
        </mxCell>
        <mxCell id="MH6F7HLeKZP1oHbFSMYT-549" value="Дата отправки сообщения" style="swimlane;swimlaneHead=0;swimlaneBody=0;fontStyle=0;connectable=0;strokeColor=inherit;fillColor=none;startSize=0;collapsible=0;recursiveResize=0;expand=0;fontSize=16;verticalAlign=top;" vertex="1" parent="MH6F7HLeKZP1oHbFSMYT-548">
          <mxGeometry width="290" height="28" as="geometry">
            <mxRectangle width="290" height="28" as="alternateBounds" />
          </mxGeometry>
        </mxCell>
        <mxCell id="MH6F7HLeKZP1oHbFSMYT-550" value="sent_at" style="swimlane;swimlaneHead=0;swimlaneBody=0;fontStyle=0;connectable=0;strokeColor=inherit;fillColor=none;startSize=0;collapsible=0;recursiveResize=0;expand=0;fontSize=16;verticalAlign=top;" vertex="1" parent="MH6F7HLeKZP1oHbFSMYT-548">
          <mxGeometry x="290" width="180" height="28" as="geometry">
            <mxRectangle width="180" height="28" as="alternateBounds" />
          </mxGeometry>
        </mxCell>
        <mxCell id="MH6F7HLeKZP1oHbFSMYT-551" value="INTEGER" style="swimlane;swimlaneHead=0;swimlaneBody=0;fontStyle=0;connectable=0;strokeColor=inherit;fillColor=none;startSize=0;collapsible=0;recursiveResize=0;expand=0;fontSize=16;verticalAlign=top;" vertex="1" parent="MH6F7HLeKZP1oHbFSMYT-548">
          <mxGeometry x="470" width="130" height="28" as="geometry">
            <mxRectangle width="130" height="28" as="alternateBounds" />
          </mxGeometry>
        </mxCell>
        <mxCell id="MH6F7HLeKZP1oHbFSMYT-602" style="shape=tableRow;horizontal=0;swimlaneHead=0;swimlaneBody=0;top=0;left=0;strokeColor=inherit;bottom=0;right=0;dropTarget=0;fontStyle=0;fillColor=none;points=[[0,0.5],[1,0.5]];portConstraint=eastwest;startSize=0;collapsible=0;recursiveResize=0;expand=0;fontSize=16;" vertex="1" parent="MH6F7HLeKZP1oHbFSMYT-527">
          <mxGeometry y="232" width="600" height="28" as="geometry" />
        </mxCell>
        <mxCell id="MH6F7HLeKZP1oHbFSMYT-603" value="ID сообщения, на которое отвечает&#xa;" style="swimlane;swimlaneHead=0;swimlaneBody=0;fontStyle=0;connectable=0;strokeColor=inherit;fillColor=none;startSize=0;collapsible=0;recursiveResize=0;expand=0;fontSize=16;verticalAlign=top;" vertex="1" parent="MH6F7HLeKZP1oHbFSMYT-602">
          <mxGeometry width="290" height="28" as="geometry">
            <mxRectangle width="290" height="28" as="alternateBounds" />
          </mxGeometry>
        </mxCell>
        <mxCell id="MH6F7HLeKZP1oHbFSMYT-604" value="reply_to_message_id" style="swimlane;swimlaneHead=0;swimlaneBody=0;fontStyle=0;connectable=0;strokeColor=inherit;fillColor=none;startSize=0;collapsible=0;recursiveResize=0;expand=0;fontSize=16;verticalAlign=top;" vertex="1" parent="MH6F7HLeKZP1oHbFSMYT-602">
          <mxGeometry x="290" width="180" height="28" as="geometry">
            <mxRectangle width="180" height="28" as="alternateBounds" />
          </mxGeometry>
        </mxCell>
        <mxCell id="MH6F7HLeKZP1oHbFSMYT-605" value="INTEGER" style="swimlane;swimlaneHead=0;swimlaneBody=0;fontStyle=0;connectable=0;strokeColor=inherit;fillColor=none;startSize=0;collapsible=0;recursiveResize=0;expand=0;fontSize=16;verticalAlign=top;" vertex="1" parent="MH6F7HLeKZP1oHbFSMYT-602">
          <mxGeometry x="470" width="130" height="28" as="geometry">
            <mxRectangle width="130" height="28" as="alternateBounds" />
          </mxGeometry>
        </mxCell>
        <mxCell id="MH6F7HLeKZP1oHbFSMYT-606" style="shape=tableRow;horizontal=0;swimlaneHead=0;swimlaneBody=0;top=0;left=0;strokeColor=inherit;bottom=0;right=0;dropTarget=0;fontStyle=0;fillColor=none;points=[[0,0.5],[1,0.5]];portConstraint=eastwest;startSize=0;collapsible=0;recursiveResize=0;expand=0;fontSize=16;" vertex="1" parent="MH6F7HLeKZP1oHbFSMYT-527">
          <mxGeometry y="260" width="600" height="28" as="geometry" />
        </mxCell>
        <mxCell id="MH6F7HLeKZP1oHbFSMYT-607" value="Удалено ли сообщение &quot;у всех&quot;" style="swimlane;swimlaneHead=0;swimlaneBody=0;fontStyle=0;connectable=0;strokeColor=inherit;fillColor=none;startSize=0;collapsible=0;recursiveResize=0;expand=0;fontSize=16;verticalAlign=top;" vertex="1" parent="MH6F7HLeKZP1oHbFSMYT-606">
          <mxGeometry width="290" height="28" as="geometry">
            <mxRectangle width="290" height="28" as="alternateBounds" />
          </mxGeometry>
        </mxCell>
        <mxCell id="MH6F7HLeKZP1oHbFSMYT-608" value="is_deleted_globally" style="swimlane;swimlaneHead=0;swimlaneBody=0;fontStyle=0;connectable=0;strokeColor=inherit;fillColor=none;startSize=0;collapsible=0;recursiveResize=0;expand=0;fontSize=16;verticalAlign=top;" vertex="1" parent="MH6F7HLeKZP1oHbFSMYT-606">
          <mxGeometry x="290" width="180" height="28" as="geometry">
            <mxRectangle width="180" height="28" as="alternateBounds" />
          </mxGeometry>
        </mxCell>
        <mxCell id="MH6F7HLeKZP1oHbFSMYT-609" value="INTEGER" style="swimlane;swimlaneHead=0;swimlaneBody=0;fontStyle=0;connectable=0;strokeColor=inherit;fillColor=none;startSize=0;collapsible=0;recursiveResize=0;expand=0;fontSize=16;verticalAlign=top;" vertex="1" parent="MH6F7HLeKZP1oHbFSMYT-606">
          <mxGeometry x="470" width="130" height="28" as="geometry">
            <mxRectangle width="130" height="28" as="alternateBounds" />
          </mxGeometry>
        </mxCell>
        <mxCell id="MH6F7HLeKZP1oHbFSMYT-552" value="Имя объекта: Участники чатов&#xa;Имя таблицы: Chat Members" style="shape=table;childLayout=tableLayout;startSize=50;collapsible=0;recursiveResize=0;expand=0;fontSize=16;align=left;" vertex="1" parent="1">
          <mxGeometry x="690" y="170" width="480" height="204" as="geometry" />
        </mxCell>
        <mxCell id="MH6F7HLeKZP1oHbFSMYT-553" value="" style="shape=tableRow;horizontal=0;swimlaneHead=0;swimlaneBody=0;top=0;left=0;strokeColor=inherit;bottom=0;right=0;dropTarget=0;fontStyle=0;fillColor=none;points=[[0,0.5],[1,0.5]];portConstraint=eastwest;startSize=0;collapsible=0;recursiveResize=0;expand=0;fontSize=16;" vertex="1" parent="MH6F7HLeKZP1oHbFSMYT-552">
          <mxGeometry y="50" width="480" height="40" as="geometry" />
        </mxCell>
        <mxCell id="MH6F7HLeKZP1oHbFSMYT-554" value="Атрибут" style="swimlane;swimlaneHead=0;swimlaneBody=0;fontStyle=0;strokeColor=inherit;connectable=0;fillColor=none;startSize=40;collapsible=0;recursiveResize=0;expand=0;fontSize=16;" vertex="1" parent="MH6F7HLeKZP1oHbFSMYT-553">
          <mxGeometry width="220" height="40" as="geometry">
            <mxRectangle width="220" height="40" as="alternateBounds" />
          </mxGeometry>
        </mxCell>
        <mxCell id="MH6F7HLeKZP1oHbFSMYT-555" value="Поле" style="swimlane;swimlaneHead=0;swimlaneBody=0;fontStyle=0;strokeColor=inherit;connectable=0;fillColor=none;startSize=40;collapsible=0;recursiveResize=0;expand=0;fontSize=16;" vertex="1" parent="MH6F7HLeKZP1oHbFSMYT-553">
          <mxGeometry x="220" width="140" height="40" as="geometry">
            <mxRectangle width="140" height="40" as="alternateBounds" />
          </mxGeometry>
        </mxCell>
        <mxCell id="MH6F7HLeKZP1oHbFSMYT-556" value="Тип" style="swimlane;swimlaneHead=0;swimlaneBody=0;fontStyle=0;strokeColor=inherit;connectable=0;fillColor=none;startSize=40;collapsible=0;recursiveResize=0;expand=0;fontSize=16;" vertex="1" parent="MH6F7HLeKZP1oHbFSMYT-553">
          <mxGeometry x="360" width="120" height="40" as="geometry">
            <mxRectangle width="120" height="40" as="alternateBounds" />
          </mxGeometry>
        </mxCell>
        <mxCell id="MH6F7HLeKZP1oHbFSMYT-557" value="" style="shape=tableRow;horizontal=0;swimlaneHead=0;swimlaneBody=0;top=0;left=0;strokeColor=inherit;bottom=0;right=0;dropTarget=0;fontStyle=0;fillColor=none;points=[[0,0.5],[1,0.5]];portConstraint=eastwest;startSize=0;collapsible=0;recursiveResize=0;expand=0;fontSize=16;" vertex="1" parent="MH6F7HLeKZP1oHbFSMYT-552">
          <mxGeometry y="90" width="480" height="30" as="geometry" />
        </mxCell>
        <mxCell id="MH6F7HLeKZP1oHbFSMYT-558" value="Первичный ключ" style="swimlane;swimlaneHead=0;swimlaneBody=0;fontStyle=0;connectable=0;strokeColor=inherit;fillColor=none;startSize=0;collapsible=0;recursiveResize=0;expand=0;fontSize=16;verticalAlign=top;" vertex="1" parent="MH6F7HLeKZP1oHbFSMYT-557">
          <mxGeometry width="220" height="30" as="geometry">
            <mxRectangle width="220" height="30" as="alternateBounds" />
          </mxGeometry>
        </mxCell>
        <mxCell id="MH6F7HLeKZP1oHbFSMYT-559" value="member_id" style="swimlane;swimlaneHead=0;swimlaneBody=0;fontStyle=0;connectable=0;strokeColor=inherit;fillColor=none;startSize=0;collapsible=0;recursiveResize=0;expand=0;fontSize=16;verticalAlign=top;" vertex="1" parent="MH6F7HLeKZP1oHbFSMYT-557">
          <mxGeometry x="220" width="140" height="30" as="geometry">
            <mxRectangle width="140" height="30" as="alternateBounds" />
          </mxGeometry>
        </mxCell>
        <mxCell id="MH6F7HLeKZP1oHbFSMYT-560" value="INTEGER" style="swimlane;swimlaneHead=0;swimlaneBody=0;fontStyle=0;connectable=0;strokeColor=inherit;fillColor=none;startSize=0;collapsible=0;recursiveResize=0;expand=0;fontSize=16;verticalAlign=top;" vertex="1" parent="MH6F7HLeKZP1oHbFSMYT-557">
          <mxGeometry x="360" width="120" height="30" as="geometry">
            <mxRectangle width="120" height="30" as="alternateBounds" />
          </mxGeometry>
        </mxCell>
        <mxCell id="MH6F7HLeKZP1oHbFSMYT-561" style="shape=tableRow;horizontal=0;swimlaneHead=0;swimlaneBody=0;top=0;left=0;strokeColor=inherit;bottom=0;right=0;dropTarget=0;fontStyle=0;fillColor=none;points=[[0,0.5],[1,0.5]];portConstraint=eastwest;startSize=0;collapsible=0;recursiveResize=0;expand=0;fontSize=16;" vertex="1" parent="MH6F7HLeKZP1oHbFSMYT-552">
          <mxGeometry y="120" width="480" height="28" as="geometry" />
        </mxCell>
        <mxCell id="MH6F7HLeKZP1oHbFSMYT-562" value="ID чата" style="swimlane;swimlaneHead=0;swimlaneBody=0;fontStyle=0;connectable=0;strokeColor=inherit;fillColor=none;startSize=0;collapsible=0;recursiveResize=0;expand=0;fontSize=16;verticalAlign=top;" vertex="1" parent="MH6F7HLeKZP1oHbFSMYT-561">
          <mxGeometry width="220" height="28" as="geometry">
            <mxRectangle width="220" height="28" as="alternateBounds" />
          </mxGeometry>
        </mxCell>
        <mxCell id="MH6F7HLeKZP1oHbFSMYT-563" value="chat_id" style="swimlane;swimlaneHead=0;swimlaneBody=0;fontStyle=0;connectable=0;strokeColor=inherit;fillColor=none;startSize=0;collapsible=0;recursiveResize=0;expand=0;fontSize=16;verticalAlign=top;" vertex="1" parent="MH6F7HLeKZP1oHbFSMYT-561">
          <mxGeometry x="220" width="140" height="28" as="geometry">
            <mxRectangle width="140" height="28" as="alternateBounds" />
          </mxGeometry>
        </mxCell>
        <mxCell id="MH6F7HLeKZP1oHbFSMYT-564" value="INTEGER" style="swimlane;swimlaneHead=0;swimlaneBody=0;fontStyle=0;connectable=0;strokeColor=inherit;fillColor=none;startSize=0;collapsible=0;recursiveResize=0;expand=0;fontSize=16;verticalAlign=top;" vertex="1" parent="MH6F7HLeKZP1oHbFSMYT-561">
          <mxGeometry x="360" width="120" height="28" as="geometry">
            <mxRectangle width="120" height="28" as="alternateBounds" />
          </mxGeometry>
        </mxCell>
        <mxCell id="MH6F7HLeKZP1oHbFSMYT-565" style="shape=tableRow;horizontal=0;swimlaneHead=0;swimlaneBody=0;top=0;left=0;strokeColor=inherit;bottom=0;right=0;dropTarget=0;fontStyle=0;fillColor=none;points=[[0,0.5],[1,0.5]];portConstraint=eastwest;startSize=0;collapsible=0;recursiveResize=0;expand=0;fontSize=16;" vertex="1" parent="MH6F7HLeKZP1oHbFSMYT-552">
          <mxGeometry y="148" width="480" height="28" as="geometry" />
        </mxCell>
        <mxCell id="MH6F7HLeKZP1oHbFSMYT-566" value="ID пользователя" style="swimlane;swimlaneHead=0;swimlaneBody=0;fontStyle=0;connectable=0;strokeColor=inherit;fillColor=none;startSize=0;collapsible=0;recursiveResize=0;expand=0;fontSize=16;verticalAlign=top;" vertex="1" parent="MH6F7HLeKZP1oHbFSMYT-565">
          <mxGeometry width="220" height="28" as="geometry">
            <mxRectangle width="220" height="28" as="alternateBounds" />
          </mxGeometry>
        </mxCell>
        <mxCell id="MH6F7HLeKZP1oHbFSMYT-567" value="user_id" style="swimlane;swimlaneHead=0;swimlaneBody=0;fontStyle=0;connectable=0;strokeColor=inherit;fillColor=none;startSize=0;collapsible=0;recursiveResize=0;expand=0;fontSize=16;verticalAlign=top;" vertex="1" parent="MH6F7HLeKZP1oHbFSMYT-565">
          <mxGeometry x="220" width="140" height="28" as="geometry">
            <mxRectangle width="140" height="28" as="alternateBounds" />
          </mxGeometry>
        </mxCell>
        <mxCell id="MH6F7HLeKZP1oHbFSMYT-568" value="INTEGER" style="swimlane;swimlaneHead=0;swimlaneBody=0;fontStyle=0;connectable=0;strokeColor=inherit;fillColor=none;startSize=0;collapsible=0;recursiveResize=0;expand=0;fontSize=16;verticalAlign=top;" vertex="1" parent="MH6F7HLeKZP1oHbFSMYT-565">
          <mxGeometry x="360" width="120" height="28" as="geometry">
            <mxRectangle width="120" height="28" as="alternateBounds" />
          </mxGeometry>
        </mxCell>
        <mxCell id="MH6F7HLeKZP1oHbFSMYT-569" style="shape=tableRow;horizontal=0;swimlaneHead=0;swimlaneBody=0;top=0;left=0;strokeColor=inherit;bottom=0;right=0;dropTarget=0;fontStyle=0;fillColor=none;points=[[0,0.5],[1,0.5]];portConstraint=eastwest;startSize=0;collapsible=0;recursiveResize=0;expand=0;fontSize=16;" vertex="1" parent="MH6F7HLeKZP1oHbFSMYT-552">
          <mxGeometry y="176" width="480" height="28" as="geometry" />
        </mxCell>
        <mxCell id="MH6F7HLeKZP1oHbFSMYT-570" value="Дата присоединения к чату" style="swimlane;swimlaneHead=0;swimlaneBody=0;fontStyle=0;connectable=0;strokeColor=inherit;fillColor=none;startSize=0;collapsible=0;recursiveResize=0;expand=0;fontSize=16;verticalAlign=top;" vertex="1" parent="MH6F7HLeKZP1oHbFSMYT-569">
          <mxGeometry width="220" height="28" as="geometry">
            <mxRectangle width="220" height="28" as="alternateBounds" />
          </mxGeometry>
        </mxCell>
        <mxCell id="MH6F7HLeKZP1oHbFSMYT-571" value="joined_at" style="swimlane;swimlaneHead=0;swimlaneBody=0;fontStyle=0;connectable=0;strokeColor=inherit;fillColor=none;startSize=0;collapsible=0;recursiveResize=0;expand=0;fontSize=16;verticalAlign=top;" vertex="1" parent="MH6F7HLeKZP1oHbFSMYT-569">
          <mxGeometry x="220" width="140" height="28" as="geometry">
            <mxRectangle width="140" height="28" as="alternateBounds" />
          </mxGeometry>
        </mxCell>
        <mxCell id="MH6F7HLeKZP1oHbFSMYT-572" value="INTEGER" style="swimlane;swimlaneHead=0;swimlaneBody=0;fontStyle=0;connectable=0;strokeColor=inherit;fillColor=none;startSize=0;collapsible=0;recursiveResize=0;expand=0;fontSize=16;verticalAlign=top;" vertex="1" parent="MH6F7HLeKZP1oHbFSMYT-569">
          <mxGeometry x="360" width="120" height="28" as="geometry">
            <mxRectangle width="120" height="28" as="alternateBounds" />
          </mxGeometry>
        </mxCell>
        <mxCell id="MH6F7HLeKZP1oHbFSMYT-577" value="Имя объекта: Чаты&#xa;Имя таблицы: Chats" style="shape=table;childLayout=tableLayout;startSize=50;collapsible=0;recursiveResize=0;expand=0;fontSize=16;align=left;" vertex="1" parent="1">
          <mxGeometry x="40" y="170" width="480" height="232" as="geometry" />
        </mxCell>
        <mxCell id="MH6F7HLeKZP1oHbFSMYT-578" value="" style="shape=tableRow;horizontal=0;swimlaneHead=0;swimlaneBody=0;top=0;left=0;strokeColor=inherit;bottom=0;right=0;dropTarget=0;fontStyle=0;fillColor=none;points=[[0,0.5],[1,0.5]];portConstraint=eastwest;startSize=0;collapsible=0;recursiveResize=0;expand=0;fontSize=16;" vertex="1" parent="MH6F7HLeKZP1oHbFSMYT-577">
          <mxGeometry y="50" width="480" height="40" as="geometry" />
        </mxCell>
        <mxCell id="MH6F7HLeKZP1oHbFSMYT-579" value="Атрибут" style="swimlane;swimlaneHead=0;swimlaneBody=0;fontStyle=0;strokeColor=inherit;connectable=0;fillColor=none;startSize=40;collapsible=0;recursiveResize=0;expand=0;fontSize=16;" vertex="1" parent="MH6F7HLeKZP1oHbFSMYT-578">
          <mxGeometry width="160" height="40" as="geometry">
            <mxRectangle width="160" height="40" as="alternateBounds" />
          </mxGeometry>
        </mxCell>
        <mxCell id="MH6F7HLeKZP1oHbFSMYT-580" value="Поле" style="swimlane;swimlaneHead=0;swimlaneBody=0;fontStyle=0;strokeColor=inherit;connectable=0;fillColor=none;startSize=40;collapsible=0;recursiveResize=0;expand=0;fontSize=16;" vertex="1" parent="MH6F7HLeKZP1oHbFSMYT-578">
          <mxGeometry x="160" width="200" height="40" as="geometry">
            <mxRectangle width="200" height="40" as="alternateBounds" />
          </mxGeometry>
        </mxCell>
        <mxCell id="MH6F7HLeKZP1oHbFSMYT-581" value="Тип" style="swimlane;swimlaneHead=0;swimlaneBody=0;fontStyle=0;strokeColor=inherit;connectable=0;fillColor=none;startSize=40;collapsible=0;recursiveResize=0;expand=0;fontSize=16;" vertex="1" parent="MH6F7HLeKZP1oHbFSMYT-578">
          <mxGeometry x="360" width="120" height="40" as="geometry">
            <mxRectangle width="120" height="40" as="alternateBounds" />
          </mxGeometry>
        </mxCell>
        <mxCell id="MH6F7HLeKZP1oHbFSMYT-582" value="" style="shape=tableRow;horizontal=0;swimlaneHead=0;swimlaneBody=0;top=0;left=0;strokeColor=inherit;bottom=0;right=0;dropTarget=0;fontStyle=0;fillColor=none;points=[[0,0.5],[1,0.5]];portConstraint=eastwest;startSize=0;collapsible=0;recursiveResize=0;expand=0;fontSize=16;" vertex="1" parent="MH6F7HLeKZP1oHbFSMYT-577">
          <mxGeometry y="90" width="480" height="30" as="geometry" />
        </mxCell>
        <mxCell id="MH6F7HLeKZP1oHbFSMYT-583" value="Первичный ключ" style="swimlane;swimlaneHead=0;swimlaneBody=0;fontStyle=0;connectable=0;strokeColor=inherit;fillColor=none;startSize=0;collapsible=0;recursiveResize=0;expand=0;fontSize=16;verticalAlign=top;" vertex="1" parent="MH6F7HLeKZP1oHbFSMYT-582">
          <mxGeometry width="160" height="30" as="geometry">
            <mxRectangle width="160" height="30" as="alternateBounds" />
          </mxGeometry>
        </mxCell>
        <mxCell id="MH6F7HLeKZP1oHbFSMYT-584" value="chat_id" style="swimlane;swimlaneHead=0;swimlaneBody=0;fontStyle=0;connectable=0;strokeColor=inherit;fillColor=none;startSize=0;collapsible=0;recursiveResize=0;expand=0;fontSize=16;verticalAlign=top;" vertex="1" parent="MH6F7HLeKZP1oHbFSMYT-582">
          <mxGeometry x="160" width="200" height="30" as="geometry">
            <mxRectangle width="200" height="30" as="alternateBounds" />
          </mxGeometry>
        </mxCell>
        <mxCell id="MH6F7HLeKZP1oHbFSMYT-585" value="INTEGER" style="swimlane;swimlaneHead=0;swimlaneBody=0;fontStyle=0;connectable=0;strokeColor=inherit;fillColor=none;startSize=0;collapsible=0;recursiveResize=0;expand=0;fontSize=16;verticalAlign=top;" vertex="1" parent="MH6F7HLeKZP1oHbFSMYT-582">
          <mxGeometry x="360" width="120" height="30" as="geometry">
            <mxRectangle width="120" height="30" as="alternateBounds" />
          </mxGeometry>
        </mxCell>
        <mxCell id="MH6F7HLeKZP1oHbFSMYT-586" style="shape=tableRow;horizontal=0;swimlaneHead=0;swimlaneBody=0;top=0;left=0;strokeColor=inherit;bottom=0;right=0;dropTarget=0;fontStyle=0;fillColor=none;points=[[0,0.5],[1,0.5]];portConstraint=eastwest;startSize=0;collapsible=0;recursiveResize=0;expand=0;fontSize=16;" vertex="1" parent="MH6F7HLeKZP1oHbFSMYT-577">
          <mxGeometry y="120" width="480" height="28" as="geometry" />
        </mxCell>
        <mxCell id="MH6F7HLeKZP1oHbFSMYT-587" value="Тип чата" style="swimlane;swimlaneHead=0;swimlaneBody=0;fontStyle=0;connectable=0;strokeColor=inherit;fillColor=none;startSize=0;collapsible=0;recursiveResize=0;expand=0;fontSize=16;verticalAlign=top;" vertex="1" parent="MH6F7HLeKZP1oHbFSMYT-586">
          <mxGeometry width="160" height="28" as="geometry">
            <mxRectangle width="160" height="28" as="alternateBounds" />
          </mxGeometry>
        </mxCell>
        <mxCell id="MH6F7HLeKZP1oHbFSMYT-588" value="chat_type" style="swimlane;swimlaneHead=0;swimlaneBody=0;fontStyle=0;connectable=0;strokeColor=inherit;fillColor=none;startSize=0;collapsible=0;recursiveResize=0;expand=0;fontSize=16;verticalAlign=top;" vertex="1" parent="MH6F7HLeKZP1oHbFSMYT-586">
          <mxGeometry x="160" width="200" height="28" as="geometry">
            <mxRectangle width="200" height="28" as="alternateBounds" />
          </mxGeometry>
        </mxCell>
        <mxCell id="MH6F7HLeKZP1oHbFSMYT-589" value="INTEGER" style="swimlane;swimlaneHead=0;swimlaneBody=0;fontStyle=0;connectable=0;strokeColor=inherit;fillColor=none;startSize=0;collapsible=0;recursiveResize=0;expand=0;fontSize=16;verticalAlign=top;" vertex="1" parent="MH6F7HLeKZP1oHbFSMYT-586">
          <mxGeometry x="360" width="120" height="28" as="geometry">
            <mxRectangle width="120" height="28" as="alternateBounds" />
          </mxGeometry>
        </mxCell>
        <mxCell id="MH6F7HLeKZP1oHbFSMYT-590" style="shape=tableRow;horizontal=0;swimlaneHead=0;swimlaneBody=0;top=0;left=0;strokeColor=inherit;bottom=0;right=0;dropTarget=0;fontStyle=0;fillColor=none;points=[[0,0.5],[1,0.5]];portConstraint=eastwest;startSize=0;collapsible=0;recursiveResize=0;expand=0;fontSize=16;" vertex="1" parent="MH6F7HLeKZP1oHbFSMYT-577">
          <mxGeometry y="148" width="480" height="28" as="geometry" />
        </mxCell>
        <mxCell id="MH6F7HLeKZP1oHbFSMYT-591" value="Название чата" style="swimlane;swimlaneHead=0;swimlaneBody=0;fontStyle=0;connectable=0;strokeColor=inherit;fillColor=none;startSize=0;collapsible=0;recursiveResize=0;expand=0;fontSize=16;verticalAlign=top;" vertex="1" parent="MH6F7HLeKZP1oHbFSMYT-590">
          <mxGeometry width="160" height="28" as="geometry">
            <mxRectangle width="160" height="28" as="alternateBounds" />
          </mxGeometry>
        </mxCell>
        <mxCell id="MH6F7HLeKZP1oHbFSMYT-592" value="chat_name" style="swimlane;swimlaneHead=0;swimlaneBody=0;fontStyle=0;connectable=0;strokeColor=inherit;fillColor=none;startSize=0;collapsible=0;recursiveResize=0;expand=0;fontSize=16;verticalAlign=top;" vertex="1" parent="MH6F7HLeKZP1oHbFSMYT-590">
          <mxGeometry x="160" width="200" height="28" as="geometry">
            <mxRectangle width="200" height="28" as="alternateBounds" />
          </mxGeometry>
        </mxCell>
        <mxCell id="MH6F7HLeKZP1oHbFSMYT-593" value="TEXT" style="swimlane;swimlaneHead=0;swimlaneBody=0;fontStyle=0;connectable=0;strokeColor=inherit;fillColor=none;startSize=0;collapsible=0;recursiveResize=0;expand=0;fontSize=16;verticalAlign=top;" vertex="1" parent="MH6F7HLeKZP1oHbFSMYT-590">
          <mxGeometry x="360" width="120" height="28" as="geometry">
            <mxRectangle width="120" height="28" as="alternateBounds" />
          </mxGeometry>
        </mxCell>
        <mxCell id="MH6F7HLeKZP1oHbFSMYT-594" style="shape=tableRow;horizontal=0;swimlaneHead=0;swimlaneBody=0;top=0;left=0;strokeColor=inherit;bottom=0;right=0;dropTarget=0;fontStyle=0;fillColor=none;points=[[0,0.5],[1,0.5]];portConstraint=eastwest;startSize=0;collapsible=0;recursiveResize=0;expand=0;fontSize=16;" vertex="1" parent="MH6F7HLeKZP1oHbFSMYT-577">
          <mxGeometry y="176" width="480" height="28" as="geometry" />
        </mxCell>
        <mxCell id="MH6F7HLeKZP1oHbFSMYT-595" value="ID создателя чата" style="swimlane;swimlaneHead=0;swimlaneBody=0;fontStyle=0;connectable=0;strokeColor=inherit;fillColor=none;startSize=0;collapsible=0;recursiveResize=0;expand=0;fontSize=16;verticalAlign=top;" vertex="1" parent="MH6F7HLeKZP1oHbFSMYT-594">
          <mxGeometry width="160" height="28" as="geometry">
            <mxRectangle width="160" height="28" as="alternateBounds" />
          </mxGeometry>
        </mxCell>
        <mxCell id="MH6F7HLeKZP1oHbFSMYT-596" value="creator_user_id" style="swimlane;swimlaneHead=0;swimlaneBody=0;fontStyle=0;connectable=0;strokeColor=inherit;fillColor=none;startSize=0;collapsible=0;recursiveResize=0;expand=0;fontSize=16;verticalAlign=top;" vertex="1" parent="MH6F7HLeKZP1oHbFSMYT-594">
          <mxGeometry x="160" width="200" height="28" as="geometry">
            <mxRectangle width="200" height="28" as="alternateBounds" />
          </mxGeometry>
        </mxCell>
        <mxCell id="MH6F7HLeKZP1oHbFSMYT-597" value="INTEGER" style="swimlane;swimlaneHead=0;swimlaneBody=0;fontStyle=0;connectable=0;strokeColor=inherit;fillColor=none;startSize=0;collapsible=0;recursiveResize=0;expand=0;fontSize=16;verticalAlign=top;" vertex="1" parent="MH6F7HLeKZP1oHbFSMYT-594">
          <mxGeometry x="360" width="120" height="28" as="geometry">
            <mxRectangle width="120" height="28" as="alternateBounds" />
          </mxGeometry>
        </mxCell>
        <mxCell id="MH6F7HLeKZP1oHbFSMYT-598" style="shape=tableRow;horizontal=0;swimlaneHead=0;swimlaneBody=0;top=0;left=0;strokeColor=inherit;bottom=0;right=0;dropTarget=0;fontStyle=0;fillColor=none;points=[[0,0.5],[1,0.5]];portConstraint=eastwest;startSize=0;collapsible=0;recursiveResize=0;expand=0;fontSize=16;" vertex="1" parent="MH6F7HLeKZP1oHbFSMYT-577">
          <mxGeometry y="204" width="480" height="28" as="geometry" />
        </mxCell>
        <mxCell id="MH6F7HLeKZP1oHbFSMYT-599" value="Дата создания чата" style="swimlane;swimlaneHead=0;swimlaneBody=0;fontStyle=0;connectable=0;strokeColor=inherit;fillColor=none;startSize=0;collapsible=0;recursiveResize=0;expand=0;fontSize=16;verticalAlign=top;" vertex="1" parent="MH6F7HLeKZP1oHbFSMYT-598">
          <mxGeometry width="160" height="28" as="geometry">
            <mxRectangle width="160" height="28" as="alternateBounds" />
          </mxGeometry>
        </mxCell>
        <mxCell id="MH6F7HLeKZP1oHbFSMYT-600" value="created_at" style="swimlane;swimlaneHead=0;swimlaneBody=0;fontStyle=0;connectable=0;strokeColor=inherit;fillColor=none;startSize=0;collapsible=0;recursiveResize=0;expand=0;fontSize=16;verticalAlign=top;" vertex="1" parent="MH6F7HLeKZP1oHbFSMYT-598">
          <mxGeometry x="160" width="200" height="28" as="geometry">
            <mxRectangle width="200" height="28" as="alternateBounds" />
          </mxGeometry>
        </mxCell>
        <mxCell id="MH6F7HLeKZP1oHbFSMYT-601" value="INTEGER" style="swimlane;swimlaneHead=0;swimlaneBody=0;fontStyle=0;connectable=0;strokeColor=inherit;fillColor=none;startSize=0;collapsible=0;recursiveResize=0;expand=0;fontSize=16;verticalAlign=top;" vertex="1" parent="MH6F7HLeKZP1oHbFSMYT-598">
          <mxGeometry x="360" width="120" height="28" as="geometry">
            <mxRectangle width="120" height="28" as="alternateBounds" />
          </mxGeometry>
        </mxCell>
        <mxCell id="MH6F7HLeKZP1oHbFSMYT-610" value="SQLite не имеет типа BOOLEAN,&amp;nbsp;&lt;div&gt;логические значения хранятся в INTEGER (0, 1)&lt;/div&gt;" style="text;html=1;align=left;verticalAlign=middle;resizable=0;points=[];autosize=1;strokeColor=none;fillColor=none;" vertex="1" parent="1">
          <mxGeometry x="1880" y="860" width="290" height="40" as="geometry" />
        </mxCell>
        <mxCell id="MH6F7HLeKZP1oHbFSMYT-611" value="Имя объекта: Статусы прочтения сообщения&#xa;Имя таблицы: Message Read Statuses" style="shape=table;childLayout=tableLayout;startSize=50;collapsible=0;recursiveResize=0;expand=0;fontSize=16;align=left;" vertex="1" parent="1">
          <mxGeometry x="690" y="460" width="480" height="204" as="geometry" />
        </mxCell>
        <mxCell id="MH6F7HLeKZP1oHbFSMYT-612" value="" style="shape=tableRow;horizontal=0;swimlaneHead=0;swimlaneBody=0;top=0;left=0;strokeColor=inherit;bottom=0;right=0;dropTarget=0;fontStyle=0;fillColor=none;points=[[0,0.5],[1,0.5]];portConstraint=eastwest;startSize=0;collapsible=0;recursiveResize=0;expand=0;fontSize=16;" vertex="1" parent="MH6F7HLeKZP1oHbFSMYT-611">
          <mxGeometry y="50" width="480" height="40" as="geometry" />
        </mxCell>
        <mxCell id="MH6F7HLeKZP1oHbFSMYT-613" value="Атрибут" style="swimlane;swimlaneHead=0;swimlaneBody=0;fontStyle=0;strokeColor=inherit;connectable=0;fillColor=none;startSize=40;collapsible=0;recursiveResize=0;expand=0;fontSize=16;" vertex="1" parent="MH6F7HLeKZP1oHbFSMYT-612">
          <mxGeometry width="160" height="40" as="geometry">
            <mxRectangle width="160" height="40" as="alternateBounds" />
          </mxGeometry>
        </mxCell>
        <mxCell id="MH6F7HLeKZP1oHbFSMYT-614" value="Поле" style="swimlane;swimlaneHead=0;swimlaneBody=0;fontStyle=0;strokeColor=inherit;connectable=0;fillColor=none;startSize=40;collapsible=0;recursiveResize=0;expand=0;fontSize=16;" vertex="1" parent="MH6F7HLeKZP1oHbFSMYT-612">
          <mxGeometry x="160" width="200" height="40" as="geometry">
            <mxRectangle width="200" height="40" as="alternateBounds" />
          </mxGeometry>
        </mxCell>
        <mxCell id="MH6F7HLeKZP1oHbFSMYT-615" value="Тип" style="swimlane;swimlaneHead=0;swimlaneBody=0;fontStyle=0;strokeColor=inherit;connectable=0;fillColor=none;startSize=40;collapsible=0;recursiveResize=0;expand=0;fontSize=16;" vertex="1" parent="MH6F7HLeKZP1oHbFSMYT-612">
          <mxGeometry x="360" width="120" height="40" as="geometry">
            <mxRectangle width="120" height="40" as="alternateBounds" />
          </mxGeometry>
        </mxCell>
        <mxCell id="MH6F7HLeKZP1oHbFSMYT-616" value="" style="shape=tableRow;horizontal=0;swimlaneHead=0;swimlaneBody=0;top=0;left=0;strokeColor=inherit;bottom=0;right=0;dropTarget=0;fontStyle=0;fillColor=none;points=[[0,0.5],[1,0.5]];portConstraint=eastwest;startSize=0;collapsible=0;recursiveResize=0;expand=0;fontSize=16;" vertex="1" parent="MH6F7HLeKZP1oHbFSMYT-611">
          <mxGeometry y="90" width="480" height="30" as="geometry" />
        </mxCell>
        <mxCell id="MH6F7HLeKZP1oHbFSMYT-617" value="Первичный ключ" style="swimlane;swimlaneHead=0;swimlaneBody=0;fontStyle=0;connectable=0;strokeColor=inherit;fillColor=none;startSize=0;collapsible=0;recursiveResize=0;expand=0;fontSize=16;verticalAlign=top;" vertex="1" parent="MH6F7HLeKZP1oHbFSMYT-616">
          <mxGeometry width="160" height="30" as="geometry">
            <mxRectangle width="160" height="30" as="alternateBounds" />
          </mxGeometry>
        </mxCell>
        <mxCell id="MH6F7HLeKZP1oHbFSMYT-618" value="read_status_id" style="swimlane;swimlaneHead=0;swimlaneBody=0;fontStyle=0;connectable=0;strokeColor=inherit;fillColor=none;startSize=0;collapsible=0;recursiveResize=0;expand=0;fontSize=16;verticalAlign=top;" vertex="1" parent="MH6F7HLeKZP1oHbFSMYT-616">
          <mxGeometry x="160" width="200" height="30" as="geometry">
            <mxRectangle width="200" height="30" as="alternateBounds" />
          </mxGeometry>
        </mxCell>
        <mxCell id="MH6F7HLeKZP1oHbFSMYT-619" value="INTEGER" style="swimlane;swimlaneHead=0;swimlaneBody=0;fontStyle=0;connectable=0;strokeColor=inherit;fillColor=none;startSize=0;collapsible=0;recursiveResize=0;expand=0;fontSize=16;verticalAlign=top;" vertex="1" parent="MH6F7HLeKZP1oHbFSMYT-616">
          <mxGeometry x="360" width="120" height="30" as="geometry">
            <mxRectangle width="120" height="30" as="alternateBounds" />
          </mxGeometry>
        </mxCell>
        <mxCell id="MH6F7HLeKZP1oHbFSMYT-620" style="shape=tableRow;horizontal=0;swimlaneHead=0;swimlaneBody=0;top=0;left=0;strokeColor=inherit;bottom=0;right=0;dropTarget=0;fontStyle=0;fillColor=none;points=[[0,0.5],[1,0.5]];portConstraint=eastwest;startSize=0;collapsible=0;recursiveResize=0;expand=0;fontSize=16;" vertex="1" parent="MH6F7HLeKZP1oHbFSMYT-611">
          <mxGeometry y="120" width="480" height="28" as="geometry" />
        </mxCell>
        <mxCell id="MH6F7HLeKZP1oHbFSMYT-621" value="ID сообщения" style="swimlane;swimlaneHead=0;swimlaneBody=0;fontStyle=0;connectable=0;strokeColor=inherit;fillColor=none;startSize=0;collapsible=0;recursiveResize=0;expand=0;fontSize=16;verticalAlign=top;" vertex="1" parent="MH6F7HLeKZP1oHbFSMYT-620">
          <mxGeometry width="160" height="28" as="geometry">
            <mxRectangle width="160" height="28" as="alternateBounds" />
          </mxGeometry>
        </mxCell>
        <mxCell id="MH6F7HLeKZP1oHbFSMYT-622" value="message_id" style="swimlane;swimlaneHead=0;swimlaneBody=0;fontStyle=0;connectable=0;strokeColor=inherit;fillColor=none;startSize=0;collapsible=0;recursiveResize=0;expand=0;fontSize=16;verticalAlign=top;" vertex="1" parent="MH6F7HLeKZP1oHbFSMYT-620">
          <mxGeometry x="160" width="200" height="28" as="geometry">
            <mxRectangle width="200" height="28" as="alternateBounds" />
          </mxGeometry>
        </mxCell>
        <mxCell id="MH6F7HLeKZP1oHbFSMYT-623" value="INTEGER" style="swimlane;swimlaneHead=0;swimlaneBody=0;fontStyle=0;connectable=0;strokeColor=inherit;fillColor=none;startSize=0;collapsible=0;recursiveResize=0;expand=0;fontSize=16;verticalAlign=top;" vertex="1" parent="MH6F7HLeKZP1oHbFSMYT-620">
          <mxGeometry x="360" width="120" height="28" as="geometry">
            <mxRectangle width="120" height="28" as="alternateBounds" />
          </mxGeometry>
        </mxCell>
        <mxCell id="MH6F7HLeKZP1oHbFSMYT-624" style="shape=tableRow;horizontal=0;swimlaneHead=0;swimlaneBody=0;top=0;left=0;strokeColor=inherit;bottom=0;right=0;dropTarget=0;fontStyle=0;fillColor=none;points=[[0,0.5],[1,0.5]];portConstraint=eastwest;startSize=0;collapsible=0;recursiveResize=0;expand=0;fontSize=16;" vertex="1" parent="MH6F7HLeKZP1oHbFSMYT-611">
          <mxGeometry y="148" width="480" height="28" as="geometry" />
        </mxCell>
        <mxCell id="MH6F7HLeKZP1oHbFSMYT-625" value="ID пользователя" style="swimlane;swimlaneHead=0;swimlaneBody=0;fontStyle=0;connectable=0;strokeColor=inherit;fillColor=none;startSize=0;collapsible=0;recursiveResize=0;expand=0;fontSize=16;verticalAlign=top;" vertex="1" parent="MH6F7HLeKZP1oHbFSMYT-624">
          <mxGeometry width="160" height="28" as="geometry">
            <mxRectangle width="160" height="28" as="alternateBounds" />
          </mxGeometry>
        </mxCell>
        <mxCell id="MH6F7HLeKZP1oHbFSMYT-626" value="user_id" style="swimlane;swimlaneHead=0;swimlaneBody=0;fontStyle=0;connectable=0;strokeColor=inherit;fillColor=none;startSize=0;collapsible=0;recursiveResize=0;expand=0;fontSize=16;verticalAlign=top;" vertex="1" parent="MH6F7HLeKZP1oHbFSMYT-624">
          <mxGeometry x="160" width="200" height="28" as="geometry">
            <mxRectangle width="200" height="28" as="alternateBounds" />
          </mxGeometry>
        </mxCell>
        <mxCell id="MH6F7HLeKZP1oHbFSMYT-627" value="INTEGER" style="swimlane;swimlaneHead=0;swimlaneBody=0;fontStyle=0;connectable=0;strokeColor=inherit;fillColor=none;startSize=0;collapsible=0;recursiveResize=0;expand=0;fontSize=16;verticalAlign=top;" vertex="1" parent="MH6F7HLeKZP1oHbFSMYT-624">
          <mxGeometry x="360" width="120" height="28" as="geometry">
            <mxRectangle width="120" height="28" as="alternateBounds" />
          </mxGeometry>
        </mxCell>
        <mxCell id="MH6F7HLeKZP1oHbFSMYT-628" style="shape=tableRow;horizontal=0;swimlaneHead=0;swimlaneBody=0;top=0;left=0;strokeColor=inherit;bottom=0;right=0;dropTarget=0;fontStyle=0;fillColor=none;points=[[0,0.5],[1,0.5]];portConstraint=eastwest;startSize=0;collapsible=0;recursiveResize=0;expand=0;fontSize=16;" vertex="1" parent="MH6F7HLeKZP1oHbFSMYT-611">
          <mxGeometry y="176" width="480" height="28" as="geometry" />
        </mxCell>
        <mxCell id="MH6F7HLeKZP1oHbFSMYT-629" value="Дата прочтения" style="swimlane;swimlaneHead=0;swimlaneBody=0;fontStyle=0;connectable=0;strokeColor=inherit;fillColor=none;startSize=0;collapsible=0;recursiveResize=0;expand=0;fontSize=16;verticalAlign=top;" vertex="1" parent="MH6F7HLeKZP1oHbFSMYT-628">
          <mxGeometry width="160" height="28" as="geometry">
            <mxRectangle width="160" height="28" as="alternateBounds" />
          </mxGeometry>
        </mxCell>
        <mxCell id="MH6F7HLeKZP1oHbFSMYT-630" value="read_at" style="swimlane;swimlaneHead=0;swimlaneBody=0;fontStyle=0;connectable=0;strokeColor=inherit;fillColor=none;startSize=0;collapsible=0;recursiveResize=0;expand=0;fontSize=16;verticalAlign=top;" vertex="1" parent="MH6F7HLeKZP1oHbFSMYT-628">
          <mxGeometry x="160" width="200" height="28" as="geometry">
            <mxRectangle width="200" height="28" as="alternateBounds" />
          </mxGeometry>
        </mxCell>
        <mxCell id="MH6F7HLeKZP1oHbFSMYT-631" value="INTEGER" style="swimlane;swimlaneHead=0;swimlaneBody=0;fontStyle=0;connectable=0;strokeColor=inherit;fillColor=none;startSize=0;collapsible=0;recursiveResize=0;expand=0;fontSize=16;verticalAlign=top;" vertex="1" parent="MH6F7HLeKZP1oHbFSMYT-628">
          <mxGeometry x="360" width="120" height="28" as="geometry">
            <mxRectangle width="120" height="28" as="alternateBounds" />
          </mxGeometry>
        </mxCell>
        <mxCell id="MH6F7HLeKZP1oHbFSMYT-636" value="" style="edgeStyle=elbowEdgeStyle;fontSize=12;html=1;endArrow=ERoneToMany;rounded=0;exitX=0;exitY=0.5;exitDx=0;exitDy=0;" edge="1" parent="1" source="MH6F7HLeKZP1oHbFSMYT-381">
          <mxGeometry width="100" height="100" relative="1" as="geometry">
            <mxPoint x="1350" y="270" as="sourcePoint" />
            <mxPoint x="1170" y="330" as="targetPoint" />
            <Array as="points">
              <mxPoint x="1230" y="310" />
            </Array>
          </mxGeometry>
        </mxCell>
        <mxCell id="MH6F7HLeKZP1oHbFSMYT-637" value="" style="edgeStyle=elbowEdgeStyle;fontSize=12;html=1;endArrow=ERoneToMany;rounded=0;entryX=0;entryY=0.5;entryDx=0;entryDy=0;" edge="1" parent="1" target="MH6F7HLeKZP1oHbFSMYT-561">
          <mxGeometry width="100" height="100" relative="1" as="geometry">
            <mxPoint x="520" y="270" as="sourcePoint" />
            <mxPoint x="650" y="130" as="targetPoint" />
          </mxGeometry>
        </mxCell>
        <mxCell id="MH6F7HLeKZP1oHbFSMYT-639" value="" style="edgeStyle=elbowEdgeStyle;fontSize=12;html=1;endArrow=ERoneToMany;rounded=0;entryX=0;entryY=0.5;entryDx=0;entryDy=0;" edge="1" parent="1" target="MH6F7HLeKZP1oHbFSMYT-540">
          <mxGeometry width="100" height="100" relative="1" as="geometry">
            <mxPoint x="1350" y="275" as="sourcePoint" />
            <mxPoint x="1200" y="740" as="targetPoint" />
            <Array as="points">
              <mxPoint x="1230" y="510" />
            </Array>
          </mxGeometry>
        </mxCell>
        <mxCell id="MH6F7HLeKZP1oHbFSMYT-640" value="" style="edgeStyle=elbowEdgeStyle;fontSize=12;html=1;endArrow=ERoneToMany;rounded=0;entryX=0;entryY=0.5;entryDx=0;entryDy=0;" edge="1" parent="1" target="MH6F7HLeKZP1oHbFSMYT-536">
          <mxGeometry width="100" height="100" relative="1" as="geometry">
            <mxPoint x="525" y="270" as="sourcePoint" />
            <mxPoint x="1270" y="726" as="targetPoint" />
            <Array as="points">
              <mxPoint x="605" y="500" />
            </Array>
          </mxGeometry>
        </mxCell>
        <mxCell id="MH6F7HLeKZP1oHbFSMYT-641" value="" style="edgeStyle=elbowEdgeStyle;fontSize=12;html=1;endArrow=ERoneToMany;rounded=0;exitX=0;exitY=0.5;exitDx=0;exitDy=0;entryX=0;entryY=0.5;entryDx=0;entryDy=0;" edge="1" parent="1" source="MH6F7HLeKZP1oHbFSMYT-532" target="MH6F7HLeKZP1oHbFSMYT-620">
          <mxGeometry width="100" height="100" relative="1" as="geometry">
            <mxPoint x="1270" y="735" as="sourcePoint" />
            <mxPoint x="830" y="700" as="targetPoint" />
            <Array as="points">
              <mxPoint x="670" y="630" />
            </Array>
          </mxGeometry>
        </mxCell>
        <mxCell id="MH6F7HLeKZP1oHbFSMYT-642" value="" style="edgeStyle=elbowEdgeStyle;fontSize=12;html=1;endArrow=ERoneToMany;rounded=0;exitX=0;exitY=0.5;exitDx=0;exitDy=0;entryX=1;entryY=0.5;entryDx=0;entryDy=0;" edge="1" parent="1" source="MH6F7HLeKZP1oHbFSMYT-381" target="MH6F7HLeKZP1oHbFSMYT-624">
          <mxGeometry width="100" height="100" relative="1" as="geometry">
            <mxPoint x="1360" y="285" as="sourcePoint" />
            <mxPoint x="1180" y="620" as="targetPoint" />
            <Array as="points">
              <mxPoint x="1230" y="450" />
            </Array>
          </mxGeometry>
        </mxCell>
        <mxCell id="MH6F7HLeKZP1oHbFSMYT-643" value="" style="edgeStyle=elbowEdgeStyle;fontSize=12;html=1;endArrow=ERzeroToOne;endFill=1;rounded=0;exitX=0;exitY=0.5;exitDx=0;exitDy=0;" edge="1" parent="1" source="MH6F7HLeKZP1oHbFSMYT-602">
          <mxGeometry width="100" height="100" relative="1" as="geometry">
            <mxPoint x="1270" y="880" as="sourcePoint" />
            <mxPoint x="1265" y="910" as="targetPoint" />
            <Array as="points">
              <mxPoint x="1230" y="910" />
            </Array>
          </mxGeometry>
        </mxCell>
        <mxCell id="MH6F7HLeKZP1oHbFSMYT-644" value="ссылка на себя&lt;div&gt;(0..1)&lt;/div&gt;" style="text;html=1;align=center;verticalAlign=middle;resizable=0;points=[];autosize=1;strokeColor=none;fillColor=none;" vertex="1" parent="1">
          <mxGeometry x="1120" y="873" width="110" height="40" as="geometry" />
        </mxCell>
        <mxCell id="MH6F7HLeKZP1oHbFSMYT-645" value="" style="edgeStyle=elbowEdgeStyle;fontSize=12;html=1;endArrow=ERoneToMany;rounded=0;exitX=1;exitY=0.5;exitDx=0;exitDy=0;entryX=0;entryY=0.5;entryDx=0;entryDy=0;" edge="1" parent="1" source="MH6F7HLeKZP1oHbFSMYT-381" target="MH6F7HLeKZP1oHbFSMYT-486">
          <mxGeometry width="100" height="100" relative="1" as="geometry">
            <mxPoint x="1850" y="270" as="sourcePoint" />
            <mxPoint x="2020" y="80" as="targetPoint" />
          </mxGeometry>
        </mxCell>
      </root>
    </mxGraphModel>
  </diagram>
</mxfile>
